<?xml version="1.0" standalone="no"?>
<!DOCTYPE svg PUBLIC "-//W3C//DTD SVG 20010904//EN"
 "http://www.w3.org/TR/2001/REC-SVG-20010904/DTD/svg10.dtd">
<svg version="1.0" xmlns="http://www.w3.org/2000/svg"
 width="416.000000pt" height="416.000000pt" viewBox="0 0 416.000000 416.000000"
 preserveAspectRatio="xMidYMid meet">

<g transform="translate(0.000000,416.000000) scale(0.100000,-0.100000)"
fill="#000000" stroke="none">
<path d="M0 2080 l0 -2080 2080 0 2080 0 0 2080 0 2080 -2080 0 -2080 0 0
-2080z m1567 646 c75 -24 133 -71 166 -136 25 -49 28 -63 24 -125 -5 -83 -30
-140 -91 -210 l-43 -50 239 3 240 3 -4 224 -3 225 -26 26 c-21 20 -39 27 -88
31 -39 4 -60 10 -58 17 5 15 532 16 532 1 0 -5 -11 -11 -25 -13 -56 -7 -91
-24 -102 -50 -6 -15 -13 -123 -16 -244 l-4 -218 28 0 c24 0 52 23 155 128 160
162 246 257 270 296 27 44 25 74 -7 86 -14 6 -23 14 -20 18 7 12 430 9 435 -3
2 -5 -19 -13 -48 -18 -29 -4 -77 -19 -108 -34 -62 -31 -231 -180 -398 -354
l-110 -114 62 -5 c34 -3 65 -8 69 -12 9 -10 -1190 -10 -1408 -1 l-158 6 0 212
c0 132 -4 224 -11 245 -14 38 -57 60 -118 60 -37 0 -57 10 -45 23 3 3 143 4
312 2 252 -2 316 -5 359 -19z m1002 -686 c30 0 51 -3 48 -6 -6 -6 86 -110 272
-309 37 -38 48 -54 26 -34 -22 19 -49 42 -59 50 -18 13 -19 13 -7 -9 14 -26
20 -190 7 -210 -4 -6 -3 -12 3 -12 6 0 15 -10 22 -22 l11 -21 -29 21 c-46 32
-215 212 -362 385 -118 137 -139 157 -164 157 l-30 0 5 -253 c7 -321 7 -322
127 -329 25 -2 46 -9 49 -15 3 -10 -55 -13 -268 -13 -213 0 -271 3 -268 13 3
6 18 13 34 15 102 9 105 18 112 335 l5 247 -147 0 -146 0 29 -41 c47 -64 64
-129 59 -218 -13 -203 -166 -335 -413 -356 -69 -5 -77 -4 -56 7 13 7 23 16 22
21 0 4 -1 13 -1 21 0 8 -12 17 -27 19 -16 2 3 5 40 6 162 3 245 114 219 290
-12 82 -55 181 -99 228 l-31 33 187 3 c102 2 319 2 481 1 162 -2 319 -4 349
-4z m-1492 -297 c-1 -54 -3 -12 -3 92 0 105 2 149 3 98 2 -51 2 -136 0 -190z
m200 -40 c-1 -60 -3 -11 -3 107 0 118 2 167 3 108 2 -60 2 -156 0 -215z m1788
-143 c10 -11 16 -20 13 -20 -3 0 -13 9 -23 20 -10 11 -16 20 -13 20 3 0 13 -9
23 -20z m275 -130 c0 -5 -5 -10 -11 -10 -5 0 -7 5 -4 10 3 6 8 10 11 10 2 0 4
-4 4 -10z m-2252 -7 c-16 -2 -40 -2 -55 0 -16 2 -3 4 27 4 30 0 43 -2 28 -4z
m200 0 c-15 -2 -42 -2 -60 0 -18 2 -6 4 27 4 33 0 48 -2 33 -4z m1749 1 c-3
-3 -12 -4 -19 -1 -8 3 -5 6 6 6 11 1 17 -2 13 -5z m56 -1 c-7 -2 -19 -2 -25 0
-7 3 -2 5 12 5 14 0 19 -2 13 -5z"/>
<path d="M1287 2673 c-4 -3 -7 -112 -7 -241 l0 -234 106 4 106 4 33 36 c100
109 47 357 -89 419 -40 18 -136 26 -149 12z"/>
</g>
</svg>
